<svg xmlns="http://www.w3.org/2000/svg" xmlns:xlink="http://www.w3.org/1999/xlink" viewBox="0 0 1920 971.39">
  <defs>
    <style>
      .cls-1 {
        fill: url(#linear-gradient);
      }

      .cls-2 {
        fill: url(#linear-gradient-2);
      }

      .cls-3 {
        fill: #fff;
      }

      .cls-4 {
        fill: url(#linear-gradient-3);
      }

      .cls-5 {
        fill: url(#linear-gradient-4);
      }
    </style>
    <linearGradient id="linear-gradient" y1="485.69" x2="1920" y2="485.69" gradientUnits="userSpaceOnUse">
      <stop offset="0" stop-color="#fff"/>
      <stop offset="0.01" stop-color="#fdfaf5"/>
      <stop offset="0.09" stop-color="#f5e1c3"/>
      <stop offset="0.17" stop-color="#edcb94"/>
      <stop offset="0.26" stop-color="#e6b76c"/>
      <stop offset="0.35" stop-color="#e1a74b"/>
      <stop offset="0.44" stop-color="#dc992f"/>
      <stop offset="0.54" stop-color="#d88f1a"/>
      <stop offset="0.66" stop-color="#d6880b"/>
      <stop offset="0.79" stop-color="#d48303"/>
      <stop offset="1" stop-color="#d48200"/>
    </linearGradient>
    <linearGradient id="linear-gradient-2" y1="489.39" x2="1920" y2="489.39" gradientUnits="userSpaceOnUse">
      <stop offset="0" stop-color="#6301f4"/>
      <stop offset="0.06" stop-color="#8131f6"/>
      <stop offset="0.13" stop-color="#9e61f8"/>
      <stop offset="0.21" stop-color="#b88cfa"/>
      <stop offset="0.28" stop-color="#ceaffc"/>
      <stop offset="0.36" stop-color="#e0ccfd"/>
      <stop offset="0.45" stop-color="#eee3fe"/>
      <stop offset="0.54" stop-color="#f7f3fe"/>
      <stop offset="0.65" stop-color="#fdfcff"/>
      <stop offset="0.79" stop-color="#fff"/>
    </linearGradient>
    <linearGradient id="linear-gradient-3" x1="-177" y1="495.12" x2="131" y2="495.12" gradientUnits="userSpaceOnUse">
      <stop offset="0" stop-color="#fff"/>
      <stop offset="0.43" stop-color="#fff"/>
      <stop offset="0.5" stop-color="#fff"/>
      <stop offset="0.54" stop-color="#f8f4ff"/>
      <stop offset="0.62" stop-color="#e6d6fd"/>
      <stop offset="0.72" stop-color="#c8a5fb"/>
      <stop offset="0.84" stop-color="#9f62f8"/>
      <stop offset="0.98" stop-color="#6b0ef5"/>
      <stop offset="1" stop-color="#6301f4"/>
    </linearGradient>
    <linearGradient id="linear-gradient-4" x1="1649.37" y1="260.47" x2="2095.37" y2="20.47" gradientTransform="translate(3676.06 -204.77) rotate(154.98)" xlink:href="#linear-gradient-3"/>
  </defs>
  <title>Layer 2</title>
  <g id="Layer_2" data-name="Layer 2">
    <g id="Layer_2-2" data-name="Layer 2">
      <path class="cls-1" d="M1920,810.55c-48-2-240,116-564,19-281.22-84.2-612.94,237-983,113-153.59-51.47-211-100-373-100v-720c151.47,0,201.82,72.62,342,130,474,194,755.33-94,991-190,329-134,432.33-11,587-11Z"/>
      <path class="cls-2" d="M1920,810.55c-48-2-235,132-559,35-281.22-84.2-617.94,189-988,65-153.59-51.47-211-100-373-100v-720c151.47,0,201.82,72.62,342,130,474,194,771.33-28,1007-124,329-134,416.33-6,571-6Z"/>
      <path class="cls-3" d="M1349,124.59C1113.33,214.13,816,421.23,342,240.26,201.82,186.74,151.47,119,0,119V809.55c26.84-5,154.41-.84,203,15,135,44,171,68,296,85,398.61,54.21,411.64-177.6,862-86.27,65.14,13.21,171.27,45.28,318.14,27.65,131.27-15.76,211.7-61.43,240.86-60.3V119C1765.33,119,1678-.41,1349,124.59Z"/>
      <path class="cls-4" d="M50.44,638.48C97.29,622.88,131,579.36,131,528.11c0-47.67-29.17-88.64-70.95-106.69.25-3.09.39-6.21.39-9.36,0-43.56-24.36-81.53-60.44-101.52V679.71A118.78,118.78,0,0,0,50.44,638.48Z"/>
      <path class="cls-5" d="M1810,353.31a124.33,124.33,0,0,0-70.26,93,124.55,124.55,0,0,0,89,214.43q1.74,4.65,3.87,9.23A124.33,124.33,0,0,0,1920,739.21V355.6A124.29,124.29,0,0,0,1810,353.31Z"/>
    </g>
  </g>
</svg>
