<svg xmlns="http://www.w3.org/2000/svg" xmlns:xlink="http://www.w3.org/1999/xlink" viewBox="0 0 1920 567.04">
  <defs>
    <style>
      .cls-1 {
        fill: url(#linear-gradient);
      }

      .cls-2 {
        fill: url(#linear-gradient-2);
      }

      .cls-3 {
        fill: #fff;
      }

      .cls-4 {
        fill: url(#linear-gradient-3);
      }

      .cls-5 {
        fill: url(#linear-gradient-4);
      }
    </style>
    <linearGradient id="linear-gradient" x1="1178.9" y1="317.52" x2="1802.3" y2="317.52" gradientUnits="userSpaceOnUse">
      <stop offset="0" stop-color="#fff"/>
      <stop offset="0.35" stop-color="#c5a0ff"/>
      <stop offset="0.79" stop-color="#7b27ff"/>
    </linearGradient>
    <linearGradient id="linear-gradient-2" x1="334.73" y1="605.76" x2="736.1" y2="388.95" gradientUnits="userSpaceOnUse">
      <stop offset="0" stop-color="#fff"/>
      <stop offset="0.49" stop-color="#d6a0ff"/>
      <stop offset="1" stop-color="#a939ff"/>
    </linearGradient>
    <linearGradient id="linear-gradient-3" x1="1748.94" y1="-42.16" x2="1957.94" y2="468.84" gradientUnits="userSpaceOnUse">
      <stop offset="0.45" stop-color="#fff"/>
      <stop offset="1" stop-color="#a939ff"/>
    </linearGradient>
    <linearGradient id="linear-gradient-4" x1="-223.06" y1="258.56" x2="169.08" y2="46.08" xlink:href="#linear-gradient-3"/>
  </defs>
  <title>bg-1</title>
  <g id="Layer_2" data-name="Layer 2">
    <g id="bg-1">
      <g id="layer3">
        <path class="cls-1" d="M1920,522a994.2,994.2,0,0,1-173.87,38C1243.57,622.19,933.59,247,722.94,435c-67.11,59.89-143.31,132.21-283.39,129C386,562.77,342.16,547.52,315,536V68H1920Z"/>
      </g>
      <g id="layer2">
        <path class="cls-2" d="M1920,495a1391.16,1391.16,0,0,1-208,38c-601.18,62.19-972-286-1224-98-80.28,59.89-171.93,131.71-339.5,128.5-64.09-1.23-116-16-148.5-27.5V41H1920Z"/>
      </g>
      <g id="layer1">
        <path class="cls-3" d="M1915,69c1.65-.27,3.3-.5,5-.69V0H0V495c32.5,11.52,84.41,26.27,148.5,27.5,167.57,3.21,269.57-88.91,359-134,316.69-159.69,602.82,206.19,1204,144A1416.6,1416.6,0,0,0,1920,495v-8.54"/>
        <path class="cls-4" d="M1913.77,59.41a116.92,116.92,0,0,0-78.4-56.93c-63.43-13.11-125.6,27.07-138.86,89.73s27.39,124.09,90.82,137.2a118.36,118.36,0,0,0,42.63,1,116.71,116.71,0,0,0,55.56,49.76,115.73,115.73,0,0,0-55.78,76.43c-13.16,62.15,26.73,123.07,89.26,136.85V58.7C1917.25,58.9,1915.5,59.13,1913.77,59.41Z"/>
        <path class="cls-5" d="M71,170.5a111.25,111.25,0,0,0-7.34-39.86,111.33,111.33,0,0,0,36-61.48A111.22,111.22,0,0,0,182.5,106,111.49,111.49,0,0,0,293.86,0H0V274.41A111.53,111.53,0,0,0,71,170.5Z"/>
      </g>
    </g>
  </g>
</svg>
